<?xml version="1.0" encoding="UTF-8"?>
<svg xmlns="http://www.w3.org/2000/svg" width="512" height="512" viewBox="0 0 512 512" fill="none">
  <defs>
    <!-- Colors -->
    <linearGradient id="shieldGrad" x1="256" y1="96" x2="256" y2="436" gradientUnits="userSpaceOnUse">
      <stop offset="0" stop-color="#162638"/>
      <stop offset="1" stop-color="#0F1A26"/>
    </linearGradient>

    <radialGradient id="glowGrad" cx="0" cy="0" r="1" gradientUnits="userSpaceOnUse"
      gradientTransform="translate(256 256) rotate(90) scale(220)">
      <stop offset="0" stop-color="#826DFF" stop-opacity="0.30"/>
      <stop offset="0.45" stop-color="#826DFF" stop-opacity="0.18"/>
      <stop offset="1" stop-color="#826DFF" stop-opacity="0"/>
    </radialGradient>

    <filter id="softShadow" x="-20%" y="-20%" width="140%" height="140%">
      <feGaussianBlur in="SourceAlpha" stdDeviation="10" result="blur"/>
      <feOffset dx="0" dy="8" result="off"/>
      <feColorMatrix in="off" type="matrix"
        values="0 0 0 0 0
                0 0 0 0 0
                0 0 0 0 0
                0 0 0 0.45 0" result="shadow"/>
      <feComposite in="shadow" in2="SourceGraphic" operator="over"/>
    </filter>

    <filter id="routeGlow" x="-30%" y="-30%" width="160%" height="160%">
      <feGaussianBlur stdDeviation="6" result="g"/>
      <feColorMatrix in="g" type="matrix"
        values="0 0 0 0 0.51
                0 0 0 0 0.43
                0 0 0 0 1
                0 0 0 0.55 0" result="c"/>
      <feMerge>
        <feMergeNode in="c"/>
        <feMergeNode in="SourceGraphic"/>
      </feMerge>
    </filter>

    <!-- Shield clip -->
    <clipPath id="shieldClip">
      <path id="shieldPath"
        d="M256 96
           Q330 110 386 141
           Q410 240 366 361
           Q312 421 256 436
           Q200 421 146 361
           Q102 240 126 141
           Q182 110 256 96 Z"/>
    </clipPath>
  </defs>

  <!-- Background glow -->
  <circle cx="256" cy="256" r="220" fill="url(#glowGrad)"/>

  <!-- Shield (shadow + fill + border) -->
  <g filter="url(#softShadow)">
    <use href="#shieldPath" fill="url(#shieldGrad)"/>
    <!-- Outer border -->
    <use href="#shieldPath" fill="none" stroke="#826DFF" stroke-width="14" stroke-linejoin="round"/>
    <!-- Inner highlight border -->
    <use href="#shieldPath" fill="none" stroke="#A88FFF" stroke-width="4" stroke-linejoin="round"/>
  </g>

  <!-- Inner content clipped to shield -->
  <g clip-path="url(#shieldClip)">
    <!-- Route -->
    <g filter="url(#routeGlow)">
      <!-- glow stroke -->
      <path d="M166 296 L216 236 L266 266 L326 196 L351 251"
            stroke="#826DFF" stroke-width="18" stroke-linecap="round" stroke-linejoin="round" opacity="0.35"/>
      <path d="M166 296 L216 236 L266 266 L326 196 L351 251"
            stroke="#826DFF" stroke-width="12" stroke-linecap="round" stroke-linejoin="round" opacity="0.55"/>
      <!-- main stroke -->
      <path d="M166 296 L216 236 L266 266 L326 196 L351 251"
            stroke="#F5F8FF" stroke-width="8" stroke-linecap="round" stroke-linejoin="round"/>
      <!-- nodes -->
      <g>
        <!-- node helper -->
        <g transform="translate(166 296)">
          <circle r="16" fill="none" stroke="#A88FFF" stroke-width="4"/>
          <circle r="10" fill="#F5F8FF"/>
        </g>
        <g transform="translate(216 236)">
          <circle r="16" fill="none" stroke="#A88FFF" stroke-width="4"/>
          <circle r="10" fill="#F5F8FF"/>
        </g>
        <g transform="translate(266 266)">
          <circle r="16" fill="none" stroke="#A88FFF" stroke-width="4"/>
          <circle r="10" fill="#F5F8FF"/>
        </g>
        <g transform="translate(326 196)">
          <circle r="16" fill="none" stroke="#A88FFF" stroke-width="4"/>
          <circle r="10" fill="#F5F8FF"/>
        </g>
        <g transform="translate(351 251)">
          <circle r="16" fill="none" stroke="#A88FFF" stroke-width="4"/>
          <circle r="10" fill="#F5F8FF"/>
        </g>
      </g>
    </g>

    <!-- Lock icon (privacy cue) -->
    <g transform="translate(256 136)">
      <!-- shackle -->
      <path d="M-30 6
               C-30 -22 -12 -40 0 -40
               C12 -40 30 -22 30 6"
            fill="none" stroke="#C8D2E6" stroke-width="8" stroke-linecap="round"/>
      <!-- body -->
      <rect x="-40" y="10" width="80" height="74" rx="14" fill="#FFFFFF" opacity="0.85"/>
      <!-- keyhole -->
      <circle cx="0" cy="42" r="9" fill="#28374E"/>
      <rect x="-5" y="50" width="10" height="20" rx="4" fill="#28374E"/>
    </g>
  </g>
</svg>
